<svg xmlns="http://www.w3.org/2000/svg" viewBox="0 0 64 64" width="48" height="48"><linearGradient id="QV8_63jQZGGATyOKvCgNwa" x1="24" x2="24" y1="29" y2="39" gradientUnits="userSpaceOnUse" spreadMethod="reflect"><stop offset="0" stop-color="#6dc7ff"/><stop offset="1" stop-color="#e6abff"/></linearGradient><path fill="url(#QV8_63jQZGGATyOKvCgNwa)" d="M22.5,39h-1c-0.276,0-0.5-0.224-0.5-0.5V30c0-0.552,0.448-1,1-1h3c1.105,0,2,0.895,2,2v3 c0,1.105-0.895,2-2,2h-2v2.5C23,38.776,22.776,39,22.5,39z M23,34h1.5c0.276,0,0.5-0.224,0.5-0.5v-2c0-0.276-0.224-0.5-0.5-0.5H23 V34z"/><linearGradient id="QV8_63jQZGGATyOKvCgNwb" x1="40" x2="40" y1="29" y2="39" gradientUnits="userSpaceOnUse" spreadMethod="reflect"><stop offset="0" stop-color="#6dc7ff"/><stop offset="1" stop-color="#e6abff"/></linearGradient><path fill="url(#QV8_63jQZGGATyOKvCgNwb)" d="M41,29h-3.5c-0.276,0-0.5,0.224-0.5,0.5V30v0.5v7V38v0.5c0,0.276,0.224,0.5,0.5,0.5H41 c1.105,0,2-0.895,2-2v-6C43,29.895,42.105,29,41,29z M41,37h-2v-6h2V37z"/><linearGradient id="QV8_63jQZGGATyOKvCgNwc" x1="32" x2="32" y1="61" y2="5.988" gradientTransform="matrix(1 0 0 -1 0 66)" gradientUnits="userSpaceOnUse" spreadMethod="reflect"><stop offset="0" stop-color="#1a6dff"/><stop offset="1" stop-color="#c822ff"/></linearGradient><path fill="url(#QV8_63jQZGGATyOKvCgNwc)" d="M51.121,15.707l-8.828-8.828C41.727,6.313,40.973,6,40.171,6H15c-1.654,0-3,1.346-3,3v40v2v4 c0,1.654,1.346,3,3,3h34c1.654,0,3-1.346,3-3v-4v-2V17.828C52,17.027,51.688,16.273,51.121,15.707z M48.586,16H43 c-0.551,0-1-0.448-1-1V9.414L48.586,16z M49,56H15c-0.551,0-1-0.448-1-1v-1.185C14.314,53.928,14.648,54,15,54h34 c0.352,0,0.686-0.072,1-0.184V55C50,55.552,49.551,56,49,56z M50,51c0,0.552-0.449,1-1,1H15c-0.551,0-1-0.448-1-1v-2V9 c0-0.552,0.449-1,1-1h25v7c0,1.654,1.346,3,3,3h7v31V51z"/><linearGradient id="QV8_63jQZGGATyOKvCgNwd" x1="32" x2="32" y1="29" y2="39" gradientUnits="userSpaceOnUse" spreadMethod="reflect"><stop offset="0" stop-color="#6dc7ff"/><stop offset="1" stop-color="#e6abff"/></linearGradient><path fill="url(#QV8_63jQZGGATyOKvCgNwd)" d="M33,39h-3.5c-0.276,0-0.5-0.224-0.5-0.5v-1c0-0.276,0.224-0.5,0.5-0.5H33v-2h-2 c-1.105,0-2-0.895-2-2v-2c0-1.105,0.895-2,2-2h2.5c0.276,0,0.5,0.224,0.5,0.5v1c0,0.276-0.224,0.5-0.5,0.5H31v2h2 c1.105,0,2,0.895,2,2v2C35,38.105,34.105,39,33,39z"/></svg>